<svg width="77" height="77" viewBox="0 0 77 77" fill="none" xmlns="http://www.w3.org/2000/svg">
<path d="M0 38.5C0 17.237 17.237 0 38.5 0C59.763 0 77 17.237 77 38.5C77 59.763 59.763 77 38.5 77C17.237 77 0 59.763 0 38.5Z" fill="white"/>
<path d="M38.5 28.2676C41.6327 28.2676 43.746 29.6208 44.9509 30.7515L49.6593 26.1543C46.7675 23.4665 43.0045 21.8167 38.5 21.8167C31.9749 21.8167 26.3397 25.5611 23.5962 31.011L28.9905 35.2004C30.3437 31.1779 34.0882 28.2676 38.5 28.2676Z" fill="#EA4335"/>
<path d="M54.516 38.8707C54.516 37.499 54.4048 36.498 54.1638 35.4599H38.5V41.6513H47.6944C47.509 43.1899 46.508 45.507 44.2836 47.0641L49.5481 51.1423C52.6994 48.232 54.516 43.9499 54.516 38.8707Z" fill="#4285F4"/>
<path d="M29.009 41.7996C28.6568 40.7615 28.4529 39.6493 28.4529 38.5C28.4529 37.3507 28.6568 36.2385 28.9905 35.2004L23.5962 31.011C22.4654 33.2726 21.8167 35.8121 21.8167 38.5C21.8167 41.1879 22.4654 43.7275 23.5962 45.989L29.009 41.7996Z" fill="#FBBC05"/>
<path d="M38.5 55.1833C43.0045 55.1833 46.7861 53.7004 49.5481 51.1423L44.2836 47.0641C42.8747 48.0466 40.984 48.7324 38.5 48.7324C34.0882 48.7324 30.3437 45.8221 29.009 41.7996L23.6148 45.989C26.3582 51.4388 31.975 55.1833 38.5 55.1833Z" fill="#34A853"/>
</svg>
