<svg width="77" height="77" viewBox="0 0 77 77" fill="none" xmlns="http://www.w3.org/2000/svg">
<path d="M0 38.5C0 17.237 17.237 0 38.5 0C59.763 0 77 17.237 77 38.5C77 59.763 59.763 77 38.5 77C17.237 77 0 59.763 0 38.5Z" fill="white"/>
<path d="M44.9167 25.6667V35.1174L47.9983 37.1969C48.0796 37.2223 48.2557 37.2242 48.337 37.1969L61.6 27.6138C61.6 26.4796 60.6128 25.6667 60.0558 25.6667H44.9167Z" fill="#0072C6"/>
<path d="M44.9183 37.7207L47.7302 39.7082C48.1264 40.0078 48.6038 39.7082 48.6038 39.7082C48.1281 40.0078 61.6 30.8 61.6 30.8V47.4737C61.6 49.2888 60.4708 50.05 59.2012 50.05H44.9167V37.7207H44.9183Z" fill="#0072C6"/>
<path d="M30.2247 33.3667C29.2228 33.3667 28.4245 33.8387 27.835 34.7809C27.2456 35.7231 26.95 36.9705 26.95 38.5231C26.95 40.0988 27.2456 41.3444 27.835 42.26C28.4245 43.1773 29.198 43.6334 30.1539 43.6334C31.1398 43.6334 31.9222 43.188 32.4993 42.2972C33.0763 41.4065 33.3666 40.1697 33.3666 38.5888C33.3666 36.9403 33.087 35.6574 32.5258 34.7401C31.9647 33.8245 31.1983 33.3667 30.2247 33.3667Z" fill="#0072C6"/>
<path fill-rule="evenodd" clip-rule="evenodd" d="M16.6833 55.9606V20.6056L43.6333 15.4V61.6L16.6833 55.9606ZM30.2609 46.5054C32.0935 46.5054 33.5784 45.7558 34.7172 44.26C35.8561 42.7643 36.4264 40.7931 36.4246 38.3482C36.4246 35.9692 35.8752 34.0535 34.7763 32.5994C33.6792 31.1453 32.2396 30.42 30.4609 30.42C28.5778 30.42 27.0652 31.18 25.9228 32.6983C24.7805 34.2166 24.2102 36.2052 24.2102 38.664C24.2102 40.9926 24.7735 42.8805 25.8967 44.3312C27.0217 45.7801 28.4753 46.5054 30.2609 46.5054Z" fill="#0072C6"/>
</svg>
